<svg width="1450" height="1086" viewBox="0 0 1450 1086" fill="none" xmlns="http://www.w3.org/2000/svg">
  <defs>
    <linearGradient id="bg" x1="0" y1="0" x2="1450" y2="1086"><stop stop-color="#070B13"/><stop offset="1" stop-color="#0D1420"/></linearGradient>
    <linearGradient id="panel" x1="0" y1="0" x2="1" y2="1"><stop stop-color="#161D2B"/><stop offset="1" stop-color="#0D131E"/></linearGradient>
    <linearGradient id="blue" x1="0" y1="0" x2="1" y2="1"><stop stop-color="#7AA2FF"/><stop offset="1" stop-color="#5F6CFF"/></linearGradient>
    <linearGradient id="purple" x1="0" y1="0" x2="1" y2="1"><stop stop-color="#8B5CF6"/><stop offset="1" stop-color="#4F46E5"/></linearGradient>
    <linearGradient id="green" x1="0" y1="0" x2="1" y2="1"><stop stop-color="#73E58D"/><stop offset="1" stop-color="#22C55E"/></linearGradient>
    <filter id="shadow" x="-20%" y="-20%" width="140%" height="140%"><feDropShadow dx="0" dy="18" stdDeviation="24" flood-color="#000" flood-opacity=".38"/></filter>
    <style>
      .text{font-family:Inter, ui-sans-serif, system-ui, -apple-system, Segoe UI, sans-serif; fill:#F8FAFC}
      .muted{fill:#9AA6B8}.faint{fill:#697589}.line{stroke:#263248}.line2{stroke:#33425F}.card{fill:url(#panel);stroke:#25314A}.small{font-size:12px}.body{font-size:14px}.h1{font-size:30px;font-weight:700}.h2{font-size:17px;font-weight:700}.nav{font-size:15px;font-weight:600}.label{font-size:11px;text-transform:uppercase;letter-spacing:.08em}.pill{font-size:12px;font-weight:700}.num{font-size:25px;font-weight:750}.btn{font-size:13px;font-weight:700}.mono{font-size:12px;font-family:ui-monospace,SFMono-Regular,Menlo,monospace}
    </style>
  </defs>
  <rect width="1450" height="1086" rx="10" fill="url(#bg)"/>
  <rect x="0" y="0" width="206" height="1086" fill="#090E17" stroke="#20283A"/>
  <circle cx="40" cy="49" r="13" stroke="#5380FF" stroke-width="3"/><circle cx="40" cy="49" r="6" fill="#315DFF"/><text x="65" y="55" class="text" font-size="22" font-weight="700">Atlas Ops</text>
  <g transform="translate(14 100)"><rect width="180" height="44" rx="7" fill="#111827" stroke="#263248"/><text x="48" y="28" class="text nav muted">Briefing</text><text x="18" y="29" class="text" font-size="22">⌂</text></g>
  <g transform="translate(14 156)"><rect width="180" height="44" rx="7" fill="url(#blue)" opacity=".22" stroke="#4C73D9"/><text x="48" y="28" class="text nav">Users</text><text x="18" y="29" class="text" font-size="21">👥</text></g>
  <text x="62" y="238" class="text nav muted">Invitations</text><text x="31" y="238" class="text" font-size="18">✉</text>
  <text x="62" y="294" class="text nav muted">Roles</text><text x="31" y="294" class="text" font-size="18">◇</text>
  <text x="62" y="350" class="text nav muted">Access Review</text><text x="31" y="350" class="text" font-size="18">✓</text>
  <text x="62" y="406" class="text nav muted">Support Access</text><text x="31" y="406" class="text" font-size="18">🛡</text>
  <text x="62" y="462" class="text nav muted">Policies</text><text x="31" y="462" class="text" font-size="18">⚙</text>
  <text x="62" y="518" class="text nav muted">Admin Audit</text><text x="31" y="518" class="text" font-size="18">▤</text>
  <circle cx="48" cy="970" r="25" fill="#27447F"/><text x="34" y="978" class="text" font-size="16" font-weight="700">HM</text><circle cx="66" cy="988" r="5" fill="#6EE784"/><text x="84" y="967" class="text" font-size="14" font-weight="700">Hugh Morris</text><text x="84" y="986" class="muted text small">SaaS Owner Admin</text>

  <g transform="translate(228 34)">
    <text class="text h1" x="0" y="24">User Administration</text>
    <text class="text muted body" x="0" y="51">Manage tenant and customer memberships, roles, invitations, support access, and auditable account lifecycle controls.</text>
    <rect x="0" y="80" width="1192" height="118" rx="16" class="card" filter="url(#shadow)"/>
    <rect x="24" y="102" width="304" height="44" rx="10" fill="#0C1320" stroke="#2A3752"/><text x="43" y="130" class="text muted body">Search users, email, organization…</text>
    <rect x="344" y="102" width="158" height="44" rx="10" fill="#0C1320" stroke="#2A3752"/><text x="363" y="130" class="text body">Tenant: Atlas Ops</text>
    <rect x="516" y="102" width="144" height="44" rx="10" fill="#0C1320" stroke="#2A3752"/><text x="535" y="130" class="text body">Status: Active</text>
    <rect x="674" y="102" width="152" height="44" rx="10" fill="#0C1320" stroke="#2A3752"/><text x="693" y="130" class="text body">Role: Any</text>
    <rect x="846" y="102" width="135" height="44" rx="10" fill="#111827" stroke="#385381"/><text x="878" y="130" class="text btn">Export audit</text>
    <rect x="998" y="102" width="170" height="44" rx="10" fill="url(#blue)"/><text x="1029" y="130" class="text btn">Invite / Add user</text>
    <text x="24" y="174" class="text small muted">Selected context</text><text x="126" y="174" class="text small">Tenant Admin · Customer-scoped memberships visible · Backend auth enforced on every action</text>

    <g transform="translate(0 220)">
      <rect width="1192" height="110" rx="16" class="card"/>
      <g transform="translate(22 22)"><circle cx="34" cy="34" r="30" fill="#193B2B"/><text x="21" y="41" class="text" font-size="20" font-weight="700">SL</text></g>
      <text x="88" y="44" class="text h2">Sofia Liu</text><text x="88" y="68" class="text muted body">sofia@globex.example · Last active 12m ago</text><text x="88" y="91" class="text small muted">Account linked through accepted invitation · MFA enabled</text>
      <rect x="390" y="28" width="108" height="26" rx="13" fill="#123622" stroke="#2D7C4B"/><text x="417" y="46" class="text pill" fill="#83F2A4">Active</text>
      <rect x="520" y="28" width="126" height="26" rx="13" fill="#182843" stroke="#446AA8"/><text x="540" y="46" class="text pill">Tenant Admin</text>
      <rect x="660" y="28" width="138" height="26" rx="13" fill="#211A39" stroke="#6D55B8"/><text x="681" y="46" class="text pill">Customer Success</text>
      <text x="835" y="44" class="text body">3 memberships</text><text x="835" y="69" class="text muted small">Tenant + 2 customers</text>
      <text x="1010" y="44" class="text body">Access review</text><text x="1010" y="69" class="text" fill="#72E38D" font-size="12">Current</text><text x="1154" y="65" class="text" font-size="24">›</text>
    </g>
    <g transform="translate(0 342)">
      <rect width="1192" height="110" rx="16" class="card"/>
      <circle cx="56" cy="56" r="30" fill="#1E2B50"/><text x="41" y="63" class="text" font-size="20" font-weight="700">JR</text>
      <text x="88" y="44" class="text h2">Jon Reyes</text><text x="88" y="68" class="text muted body">jon@northwind.example · Last active 1h ago</text><text x="88" y="91" class="text small muted">Customer-scoped operator · AI decision reviewer</text>
      <rect x="390" y="28" width="108" height="26" rx="13" fill="#123622" stroke="#2D7C4B"/><text x="417" y="46" class="text pill">Active</text>
      <rect x="520" y="28" width="116" height="26" rx="13" fill="#2D2412" stroke="#8A6720"/><text x="542" y="46" class="text pill">Reviewer</text>
      <rect x="650" y="28" width="128" height="26" rx="13" fill="#142F3D" stroke="#2E7E9A"/><text x="671" y="46" class="text pill">Service Ops</text>
      <text x="835" y="44" class="text body">1 membership</text><text x="835" y="69" class="text muted small">Northwind Architecture</text>
      <text x="1010" y="44" class="text body">Access review</text><text x="1010" y="69" class="text" fill="#EAB64D" font-size="12">Due in 5 days</text><text x="1154" y="65" class="text" font-size="24">›</text>
    </g>
    <g transform="translate(0 464)">
      <rect width="1192" height="110" rx="16" class="card"/>
      <circle cx="56" cy="56" r="30" fill="#3B1F24"/><text x="40" y="63" class="text" font-size="20" font-weight="700">AP</text>
      <text x="88" y="44" class="text h2">Amina Patel</text><text x="88" y="68" class="text muted body">amina@acmelegal.example · Invitation accepted yesterday</text><text x="88" y="91" class="text small muted">Profile incomplete · default context pending confirmation</text>
      <rect x="390" y="28" width="122" height="26" rx="13" fill="#2D2412" stroke="#8A6720"/><text x="412" y="46" class="text pill">Limited</text>
      <rect x="530" y="28" width="112" height="26" rx="13" fill="#211A39" stroke="#6D55B8"/><text x="555" y="46" class="text pill">Approver</text>
      <rect x="656" y="28" width="106" height="26" rx="13" fill="#142F3D" stroke="#2E7E9A"/><text x="680" y="46" class="text pill">Billing</text>
      <text x="835" y="44" class="text body">1 membership</text><text x="835" y="69" class="text muted small">Acme Legal</text>
      <text x="1010" y="44" class="text body">Access review</text><text x="1010" y="69" class="text" fill="#72E38D" font-size="12">Current</text><text x="1154" y="65" class="text" font-size="24">›</text>
    </g>
    <g transform="translate(0 586)">
      <rect width="1192" height="110" rx="16" class="card"/>
      <circle cx="56" cy="56" r="30" fill="#352812"/><text x="40" y="63" class="text" font-size="20" font-weight="700">TK</text>
      <text x="88" y="44" class="text h2">Theo King</text><text x="88" y="68" class="text muted body">theo@stark.example · Invite expires in 19h</text><text x="88" y="91" class="text small muted">Reminder sent · captured outbox delivery id msg-1842</text>
      <rect x="390" y="28" width="120" height="26" rx="13" fill="#2D2412" stroke="#8A6720"/><text x="416" y="46" class="text pill">Invited</text>
      <rect x="530" y="28" width="132" height="26" rx="13" fill="#182843" stroke="#446AA8"/><text x="550" y="46" class="text pill">Service Lead</text>
      <text x="835" y="44" class="text body">1 pending membership</text><text x="835" y="69" class="text muted small">Stark Building</text>
      <text x="1010" y="44" class="text body">Invite actions</text><text x="1010" y="69" class="text" fill="#8DB1FF" font-size="12">Resend · Revoke</text><text x="1154" y="65" class="text" font-size="24">›</text>
    </g>

    <g transform="translate(0 726)">
      <rect width="378" height="202" rx="16" class="card"/><text x="20" y="34" class="text h2">Access health</text><text x="20" y="58" class="text muted small">Mandatory SaaS foundation signals</text>
      <text x="24" y="96" class="text num">142</text><text x="79" y="96" class="text muted body">active users</text><text x="220" y="96" class="text num">9</text><text x="254" y="96" class="text muted body">pending invites</text>
      <text x="24" y="134" class="text" fill="#74E58E" font-size="13">✓ Tenant isolation filters active</text><text x="24" y="162" class="text" fill="#74E58E" font-size="13">✓ Backend authorization required</text><text x="24" y="190" class="text" fill="#EAB64D" font-size="13">● 3 access reviews due this week</text>
    </g>
    <g transform="translate(406 726)">
      <rect width="378" height="202" rx="16" class="card"/><text x="20" y="34" class="text h2">Recent admin audit</text><text x="20" y="58" class="text muted small">Identity, membership, role, and invite activity</text>
      <text x="22" y="94" class="text body">Sofia Liu granted Tenant Admin</text><text x="260" y="94" class="text muted small">12m</text><text x="22" y="126" class="text body">Theo King invitation resent</text><text x="260" y="126" class="text muted small">1h</text><text x="22" y="158" class="text body">Support access approved for case #8821</text><text x="260" y="158" class="text muted small">2h</text><text x="22" y="190" class="text" fill="#8DB1FF" font-size="13">Open admin audit trace ›</text>
    </g>
    <g transform="translate(812 726)">
      <rect width="380" height="202" rx="16" class="card"/><text x="20" y="34" class="text h2">AI admin assistance</text><text x="20" y="58" class="text muted small">Agents draft, humans approve authority changes</text>
      <rect x="20" y="78" width="340" height="36" rx="9" fill="#101826" stroke="#2B3852"/><text x="38" y="101" class="text body">Review risky role changes</text><text x="318" y="101" class="text" font-size="18">›</text>
      <rect x="20" y="124" width="340" height="36" rx="9" fill="#101826" stroke="#2B3852"/><text x="38" y="147" class="text body">Summarize pending invitations</text><text x="318" y="147" class="text" font-size="18">›</text>
      <text x="22" y="190" class="text" fill="#8DB1FF" font-size="13">AdminRiskAgent · AccessReviewAgent enabled</text>
    </g>
  </g>
</svg>
